<svg width="23" height="23" viewBox="0 0 24 24" xmlns="http://www.w3.org/2000/svg">
    <path d="M22.1714 0H1.82857C1.3436 0 0.8785 0.192653 0.535576 0.535576C0.192653 0.8785 0 1.3436 0 1.82857L0 22.1714C0 22.6564 0.192653 23.1215 0.535576 23.4644C0.8785 23.8073 1.3436 24 1.82857 24H22.1714C22.6564 24 23.1215 23.8073 23.4644 23.4644C23.8073 23.1215 24 22.6564 24 22.1714V1.82857C24 1.3436 23.8073 0.8785 23.4644 0.535576C23.1215 0.192653 22.6564 0 22.1714 0V0ZM13.6594 13.9794C13.3194 14.2312 12.9026 14.3572 12.48 14.336H10.0389L10.0571 17.5451C10.0681 17.7705 10.0323 17.9956 9.95202 18.2064C9.87178 18.4173 9.74882 18.6092 9.59086 18.7703C9.42949 18.9246 9.23857 19.0446 9.02959 19.1232C8.82061 19.2017 8.5979 19.2372 8.37486 19.2274V19.2274C8.15099 19.2376 7.92743 19.2015 7.71818 19.1212C7.50894 19.041 7.31852 18.9184 7.15886 18.7611V18.7611C7.00387 18.5984 6.88346 18.4059 6.8049 18.1954C6.72633 17.9848 6.69123 17.7605 6.70171 17.536V9.75543C6.67351 9.2254 6.75656 8.69533 6.94551 8.19932C7.13447 7.70332 7.42515 7.25235 7.79886 6.87543C8.62327 6.14137 9.70467 5.76338 10.8069 5.824V5.824H15.2229C15.6662 5.79487 16.1049 5.92812 16.4571 6.19886C16.6144 6.33723 16.7381 6.50956 16.8189 6.70282C16.8997 6.89607 16.9354 7.10517 16.9234 7.31429C16.9296 7.51064 16.8907 7.7058 16.8099 7.88485C16.7291 8.06391 16.6084 8.22213 16.4571 8.34743C16.1171 8.59915 15.7003 8.72517 15.2777 8.704H11.0811C10.9488 8.69674 10.8165 8.71833 10.6934 8.76727C10.5703 8.81621 10.4592 8.89133 10.368 8.98743C10.167 9.22349 10.0654 9.52829 10.0846 9.83771V11.4286H12.5349C12.9697 11.3987 13.401 11.5251 13.7509 11.7851C13.9052 11.9234 14.0264 12.0947 14.1056 12.2862C14.1847 12.4777 14.2197 12.6845 14.208 12.8914C14.211 13.1036 14.1627 13.3133 14.0672 13.5027C13.9716 13.6921 13.8318 13.8557 13.6594 13.9794V13.9794ZM16.5851 14.3543C16.3139 14.3543 16.0487 14.2739 15.8232 14.1232C15.5977 13.9725 15.4219 13.7583 15.3181 13.5077C15.2143 13.2571 15.1871 12.9813 15.2401 12.7153C15.293 12.4493 15.4236 12.2049 15.6154 12.0131C15.8072 11.8213 16.0516 11.6907 16.3176 11.6378C16.5836 11.5849 16.8594 11.612 17.11 11.7158C17.3606 11.8196 17.5748 11.9954 17.7254 12.2209C17.8761 12.4465 17.9566 12.7116 17.9566 12.9829C17.9566 13.3466 17.8121 13.6954 17.5549 13.9526C17.2977 14.2098 16.9489 14.3543 16.5851 14.3543V14.3543ZM19.3737 8.81371C19.0916 8.81371 18.8159 8.73006 18.5813 8.57334C18.3468 8.41662 18.164 8.19386 18.056 7.93324C17.948 7.67262 17.9198 7.38585 17.9748 7.10917C18.0299 6.8325 18.1657 6.57836 18.3652 6.37889C18.5646 6.17942 18.8188 6.04358 19.0955 5.98855C19.3721 5.93351 19.6589 5.96176 19.9195 6.06971C20.1801 6.17766 20.4029 6.36048 20.5596 6.59503C20.7164 6.82958 20.8 7.10534 20.8 7.38743C20.8 7.7657 20.6497 8.12848 20.3823 8.39596C20.1148 8.66345 19.752 8.81371 19.3737 8.81371Z"
          />
</svg>
