<?xml version="1.0" encoding="UTF-8" standalone="no"?>
<!DOCTYPE svg PUBLIC "-//W3C//DTD SVG 1.1//EN"
 "http://www.w3.org/Graphics/SVG/1.1/DTD/svg11.dtd">
<!-- Generated by graphviz version 2.40.1 (20161225.0304)
 -->
<!-- Title: workflow Pages: 1 -->
<svg width="589pt" height="108pt"
 viewBox="0.00 0.00 589.00 108.00" xmlns="http://www.w3.org/2000/svg" xmlns:xlink="http://www.w3.org/1999/xlink">
<g id="graph0" class="graph" transform="scale(1 1) rotate(0) translate(4 104)">
<title>workflow</title>
<polygon fill="#ffffff" stroke="transparent" points="-4,4 -4,-104 585,-104 585,4 -4,4"/>
<!-- place_0e7766b460fd2a39a2fd81d4a3a636b033b52be4 -->
<g id="node1" class="node">
<title>place_0e7766b460fd2a39a2fd81d4a3a636b033b52be4</title>
<ellipse fill="#add8e6" stroke="#333333" cx="36" cy="-36" rx="36" ry="36"/>
<text text-anchor="middle" x="36" y="-33.8" font-family="Arial" font-size="9.00" fill="#000000">draft</text>
</g>
<!-- place_0e7766b460fd2a39a2fd81d4a3a636b033b52be4&#45;&gt;place_0e7766b460fd2a39a2fd81d4a3a636b033b52be4 -->
<g id="edge1" class="edge">
<title>place_0e7766b460fd2a39a2fd81d4a3a636b033b52be4&#45;&gt;place_0e7766b460fd2a39a2fd81d4a3a636b033b52be4</title>
<path fill="none" stroke="#333333" d="M20.64,-68.6889C20.3097,-80.4287 25.4297,-90 36,-90 45.0013,-90 50.0502,-83.0593 51.1468,-73.7492"/>
<polygon fill="#333333" stroke="#333333" points="52.8979,-73.7582 51.36,-68.6889 49.401,-73.6108 52.8979,-73.7582"/>
<text text-anchor="middle" x="36" y="-92.8" font-family="Arial" font-size="9.00" fill="#000000">_draft_draft</text>
</g>
<!-- place_61e62b213a1a56f7695845df4fc372a10cb0a73e -->
<g id="node2" class="node">
<title>place_61e62b213a1a56f7695845df4fc372a10cb0a73e</title>
<ellipse fill="none" stroke="#333333" cx="200" cy="-36" rx="36" ry="36"/>
<text text-anchor="middle" x="200" y="-33.8" font-family="Arial" font-size="9.00" fill="#000000">review</text>
</g>
<!-- place_0e7766b460fd2a39a2fd81d4a3a636b033b52be4&#45;&gt;place_61e62b213a1a56f7695845df4fc372a10cb0a73e -->
<g id="edge2" class="edge">
<title>place_0e7766b460fd2a39a2fd81d4a3a636b033b52be4&#45;&gt;place_61e62b213a1a56f7695845df4fc372a10cb0a73e</title>
<path fill="none" stroke="#333333" d="M72.3969,-36C97.9644,-36 132.2047,-36 158.7794,-36"/>
<polygon fill="#333333" stroke="#333333" points="158.9873,-37.7501 163.9873,-36 158.9873,-34.2501 158.9873,-37.7501"/>
<text text-anchor="middle" x="118" y="-38.8" font-family="Arial" font-size="9.00" fill="#000000">_draft_review</text>
</g>
<!-- place_61e62b213a1a56f7695845df4fc372a10cb0a73e&#45;&gt;place_0e7766b460fd2a39a2fd81d4a3a636b033b52be4 -->
<g id="edge4" class="edge">
<title>place_61e62b213a1a56f7695845df4fc372a10cb0a73e&#45;&gt;place_0e7766b460fd2a39a2fd81d4a3a636b033b52be4</title>
<path fill="none" stroke="#333333" d="M165.3952,-25.648C159.0012,-24.1308 152.3407,-22.8086 146,-22 121.311,-18.8516 114.689,-18.8516 90,-22 85.3435,-22.5938 80.5146,-23.4646 75.7454,-24.4862"/>
<polygon fill="#333333" stroke="#333333" points="75.096,-22.8388 70.6048,-25.648 75.8676,-26.2527 75.096,-22.8388"/>
<text text-anchor="middle" x="118" y="-24.8" font-family="Arial" font-size="9.00" fill="#000000">_review_draft</text>
</g>
<!-- place_61c9b2b17db77a27841bbeeabff923448b0f6388 -->
<g id="node3" class="node">
<title>place_61c9b2b17db77a27841bbeeabff923448b0f6388</title>
<ellipse fill="none" stroke="#333333" cx="371" cy="-36" rx="36" ry="36"/>
<text text-anchor="middle" x="371" y="-33.8" font-family="Arial" font-size="9.00" fill="#000000">public</text>
</g>
<!-- place_61e62b213a1a56f7695845df4fc372a10cb0a73e&#45;&gt;place_61c9b2b17db77a27841bbeeabff923448b0f6388 -->
<g id="edge3" class="edge">
<title>place_61e62b213a1a56f7695845df4fc372a10cb0a73e&#45;&gt;place_61c9b2b17db77a27841bbeeabff923448b0f6388</title>
<path fill="none" stroke="#333333" d="M236.2647,-36C263.5836,-36 301.0756,-36 329.5752,-36"/>
<polygon fill="#333333" stroke="#333333" points="329.7876,-37.7501 334.7876,-36 329.7875,-34.2501 329.7876,-37.7501"/>
<text text-anchor="middle" x="285.5" y="-38.8" font-family="Arial" font-size="9.00" fill="#000000">_review_public</text>
</g>
<!-- place_ebfb55f4432b592119a10592e4f26272cc72359e -->
<g id="node4" class="node">
<title>place_ebfb55f4432b592119a10592e4f26272cc72359e</title>
<ellipse fill="none" stroke="#333333" cx="545" cy="-36" rx="36" ry="36"/>
<text text-anchor="middle" x="545" y="-33.8" font-family="Arial" font-size="9.00" fill="#000000">archive</text>
</g>
<!-- place_61c9b2b17db77a27841bbeeabff923448b0f6388&#45;&gt;place_ebfb55f4432b592119a10592e4f26272cc72359e -->
<g id="edge5" class="edge">
<title>place_61c9b2b17db77a27841bbeeabff923448b0f6388&#45;&gt;place_ebfb55f4432b592119a10592e4f26272cc72359e</title>
<path fill="none" stroke="#333333" d="M407.0529,-36C435.2825,-36 474.5617,-36 503.989,-36"/>
<polygon fill="#333333" stroke="#333333" points="503.9933,-37.7501 508.9933,-36 503.9932,-34.2501 503.9933,-37.7501"/>
<text text-anchor="middle" x="458" y="-38.8" font-family="Arial" font-size="9.00" fill="#000000">_public_archive</text>
</g>
</g>
</svg>
