<?xml version="1.0" encoding="UTF-8"?>
<svg xmlns="http://www.w3.org/2000/svg" version="1.1" viewBox="0 0 137.9 36">
  <defs>
    <style>
      .flotiq-logo-wt-cls-1 {
        fill: #fff;
      }

      .flotiq-logo-wt-cls-2 {
        fill: #0083fc;
        fill-rule: evenodd;
      }
    </style>
  </defs>
  <!-- Generator: Adobe Illustrator 28.6.0, SVG Export Plug-In . SVG Version: 1.2.0 Build 709)  -->
  <g>
    <g id="Layer_1">
      <path class="flotiq-logo-wt-cls-1" d="M68,9v3.7h-11.9v3.8h11.3v3.7h-11.3v6.7h-4.1V9h16Z"/>
      <path class="flotiq-logo-wt-cls-1" d="M76.1,26.9c-1.5,0-2.6-.3-3.4-1-.8-.7-1.2-1.7-1.2-2.9V7.9h3.9v14.3c0,.4.1.7.3.9.2.2.6.3,1.1.3h1.2v3.5h-1.9Z"/>
      <path class="flotiq-logo-wt-cls-1" d="M88.2,27.2c-1.7,0-3.2-.3-4.4-.8-1.3-.6-2.2-1.4-2.9-2.4-.7-1.1-1-2.3-1-3.7v-.4c0-1.5.3-2.7,1-3.8.7-1.1,1.6-1.9,2.9-2.4,1.3-.6,2.7-.8,4.5-.8s3.2.3,4.4.8c1.2.6,2.2,1.4,2.8,2.4.7,1.1,1,2.3,1,3.8v.4c0,1.4-.3,2.7-1,3.7-.7,1-1.6,1.8-2.8,2.4-1.2.5-2.7.8-4.4.8ZM88.2,23.6c1.3,0,2.4-.3,3.1-.9.7-.6,1.1-1.4,1.1-2.5v-.3c0-1.1-.4-2-1.1-2.6-.7-.6-1.8-.9-3.1-.9s-2.4.3-3.1.9c-.7.6-1.1,1.4-1.1,2.6v.3c0,1.1.4,1.9,1.1,2.5.7.6,1.8.9,3.1.9Z"/>
      <path class="flotiq-logo-wt-cls-1" d="M105.8,16.7v5.2c0,.5.1.9.4,1.1.3.3.7.4,1.2.4h3.2v3.5h-3.7c-1.6,0-2.8-.4-3.7-1.3-.9-.9-1.4-2-1.4-3.5v-5.4h-4.5v-3.5h3.6c.4,0,.6,0,.8-.2.1-.1.2-.4.2-.8v-2.6h3.8v3.6h5.7v3.5h-5.7Z"/>
      <path class="flotiq-logo-wt-cls-1" d="M118.1,13.2v13.6h-3.9v-13.6h3.9ZM116.1,11.6c-.7,0-1.3-.2-1.8-.6-.5-.4-.7-1-.7-1.7s.2-1.2.7-1.7c.5-.4,1-.7,1.8-.7s1.3.2,1.8.7c.5.4.7,1,.7,1.7s-.2,1.3-.7,1.7c-.5.4-1,.6-1.8.6Z"/>
      <path class="flotiq-logo-wt-cls-1" d="M137.9,13.2v18.3h-3.9v-5.6c-1.2.9-2.7,1.3-4.4,1.3s-3-.3-4.2-.9c-1.2-.6-2.1-1.4-2.8-2.5-.7-1.1-1-2.3-1-3.7v-.3c0-1.4.3-2.6,1-3.7.7-1.1,1.6-1.9,2.8-2.5,1.2-.6,2.6-.9,4.2-.9s3.3.5,4.6,1.5v-1.2h3.8ZM129.9,23.6c.9,0,1.6-.1,2.3-.4.7-.3,1.3-.6,1.7-1.1v-4.1c-.4-.5-1-.8-1.7-1.1-.7-.3-1.5-.4-2.4-.4-1.3,0-2.4.3-3.1.9-.7.6-1.1,1.4-1.1,2.5v.3c0,1.1.4,1.9,1.1,2.5.7.6,1.8.9,3.1.9Z"/>
      <path class="flotiq-logo-wt-cls-2" d="M0,4.9C0,2.2,2.2,0,4.9,0h8.2c.6,0,1.1,0,1.6.3,2.5.9,4.7,3,7.4,3h0c2.6,0,4.9-2.1,7.4-3,.5-.2,1.1-.3,1.6-.3,2.7,0,4.9,2.2,4.9,4.9s-2.2,4.9-4.9,4.9-1.1,0-1.6-.3c-2.5-.9-4.7-3-7.4-3h0c-2.6,0-4.9,2.1-7.4,3-.5.2-1.1.3-1.6.3H4.9C2.2,9.8,0,7.6,0,4.9ZM0,18C0,15.3,2.2,13.1,4.9,13.1s1.4.2,2,.4c2.2,1,4.2,2.8,6.6,2.8h0c2.4,0,4.4-1.9,6.6-2.8.6-.3,1.3-.4,2-.4,2.7,0,4.9,2.2,4.9,4.9s-2.2,4.9-4.9,4.9-1.4-.2-2-.4c-2.2-1-4.2-2.8-6.6-2.8h0c-2.4,0-4.4,1.9-6.6,2.8-.6.3-1.3.4-2,.4C2.2,22.9,0,20.7,0,18ZM4.9,26.2C2.2,26.2,0,28.4,0,31.1s2.2,4.9,4.9,4.9,4.9-2.2,4.9-4.9-2.2-4.9-4.9-4.9Z"/>
    </g>
  </g>
</svg>
