<svg width="202" height="36" viewBox="0 0 202 36" fill="none" xmlns="http://www.w3.org/2000/svg">
<path d="M67.9569 8.98781V12.6639H56.0845V16.4489H67.4123V20.125H56.0845V26.8509H52V8.98781H67.9569Z" fill="white"/>
<path d="M76.1015 26.8509C74.6493 26.8509 73.5237 26.5059 72.725 25.8161C71.9262 25.1081 71.5269 24.1278 71.5269 22.8752V7.8986H75.448V22.1673C75.448 22.5848 75.5569 22.8934 75.7748 23.0931C75.9926 23.2928 76.3466 23.3926 76.8368 23.3926H78.0077V26.8509H76.1015Z" fill="white"/>
<path d="M88.2009 27.1776C86.4945 27.1776 85.015 26.9053 83.7624 26.3607C82.5098 25.798 81.5477 24.9992 80.876 23.9644C80.2043 22.9115 79.8685 21.6771 79.8685 20.2611V19.9071C79.8685 18.4549 80.1952 17.2023 80.8488 16.1494C81.5204 15.0965 82.4826 14.2886 83.7352 13.7259C84.9878 13.1631 86.4763 12.8817 88.2009 12.8817C89.9074 12.8817 91.3778 13.1631 92.6122 13.7259C93.8467 14.2886 94.7906 15.0965 95.4442 16.1494C96.1159 17.2023 96.4517 18.4549 96.4517 19.9071V20.2611C96.4517 21.6771 96.1159 22.9115 95.4442 23.9644C94.7906 24.9992 93.8467 25.798 92.6122 26.3607C91.3778 26.9053 89.9074 27.1776 88.2009 27.1776ZM88.1737 23.5832C89.4989 23.5832 90.5246 23.2928 91.2507 22.7119C91.995 22.1309 92.3672 21.305 92.3672 20.2339V19.9344C92.3672 18.827 92.0041 17.9738 91.2779 17.3747C90.5518 16.7757 89.5171 16.4761 88.1737 16.4761C86.8122 16.4761 85.7684 16.7757 85.0422 17.3747C84.3161 17.9556 83.953 18.8089 83.953 19.9344V20.2339C83.953 21.305 84.3161 22.1309 85.0422 22.7119C85.7865 23.2928 86.8303 23.5832 88.1737 23.5832Z" fill="white"/>
<path d="M105.792 16.694V21.8677C105.792 22.3579 105.928 22.7391 106.201 23.0114C106.491 23.2655 106.899 23.3926 107.426 23.3926H110.639V26.8509H106.909C105.347 26.8509 104.113 26.4333 103.205 25.5983C102.298 24.745 101.844 23.5923 101.844 22.14V16.694H97.2963V13.2085H100.945C101.326 13.2085 101.59 13.1359 101.735 12.9907C101.88 12.8454 101.953 12.5822 101.953 12.201V9.58688H105.792V13.2085H111.456V16.694H105.792Z" fill="white"/>
<path d="M118.06 13.2085V26.8509H114.139V13.2085H118.06ZM116.1 11.6291C115.373 11.6291 114.783 11.4204 114.33 11.0028C113.876 10.5672 113.649 10.0044 113.649 9.31457C113.649 8.62474 113.876 8.07106 114.33 7.65353C114.783 7.21784 115.373 7 116.1 7C116.844 7 117.434 7.21784 117.87 7.65353C118.323 8.07106 118.55 8.62474 118.55 9.31457C118.55 10.0044 118.323 10.5672 117.87 11.0028C117.416 11.4204 116.826 11.6291 116.1 11.6291Z" fill="white"/>
<path d="M137.887 13.2085V31.48H133.939V25.8433C132.723 26.7329 131.243 27.1776 129.501 27.1776C127.903 27.1776 126.505 26.8872 125.307 26.3063C124.127 25.7253 123.21 24.9084 122.557 23.8555C121.903 22.7845 121.576 21.55 121.576 20.1522V19.8799C121.576 18.4821 121.894 17.2567 122.53 16.2038C123.183 15.1328 124.109 14.3159 125.307 13.7531C126.505 13.1722 127.903 12.8817 129.501 12.8817C131.28 12.8817 132.814 13.381 134.102 14.3794L134.211 13.2085H137.887ZM129.882 23.5832C130.735 23.5832 131.516 23.4471 132.224 23.1748C132.95 22.9025 133.522 22.5303 133.939 22.0583V17.9738C133.54 17.5018 132.977 17.1387 132.251 16.8846C131.543 16.6123 130.753 16.4761 129.882 16.4761C128.557 16.4761 127.522 16.7757 126.777 17.3747C126.033 17.9738 125.661 18.8089 125.661 19.8799V20.1522C125.661 21.2414 126.033 22.0856 126.777 22.6846C127.522 23.2837 128.557 23.5832 129.882 23.5832Z" fill="white"/>
<path fill-rule="evenodd" clip-rule="evenodd" d="M0 4.90909C0 2.19787 2.19787 0 4.90909 0L13.0909 0C13.6667 0 14.2193 0.0991258 14.7327 0.281243C17.201 1.15695 19.4718 3.27273 22.0909 3.27273V3.27273C24.71 3.27273 26.9808 1.15695 29.4492 0.281243C29.9625 0.0991257 30.5151 0 31.0909 0C33.8021 0 36 2.19787 36 4.90909C36 7.62031 33.8021 9.81818 31.0909 9.81818C30.5151 9.81818 29.9625 9.71906 29.4492 9.53694C26.9808 8.66123 24.71 6.54545 22.0909 6.54545V6.54545C19.4718 6.54545 17.201 8.66123 14.7327 9.53694C14.2193 9.71906 13.6667 9.81818 13.0909 9.81818H4.90909C2.19787 9.81818 0 7.62031 0 4.90909ZM1.99751e-05 18C1.99751e-05 15.2888 2.19789 13.0909 4.90911 13.0909C5.6296 13.0909 6.31384 13.2461 6.93021 13.5249C9.09316 14.5033 11.1261 16.3636 13.5 16.3636V16.3636C15.874 16.3636 17.9069 14.5033 20.0698 13.5249C20.6862 13.2461 21.3704 13.0909 22.0909 13.0909C24.8021 13.0909 27 15.2888 27 18C27 20.7112 24.8021 22.9091 22.0909 22.9091C21.3704 22.9091 20.6862 22.7539 20.0698 22.4751C17.9069 21.4967 15.874 19.6364 13.5 19.6364V19.6364C11.1261 19.6364 9.09316 21.4967 6.93021 22.4751C6.31384 22.7539 5.6296 22.9091 4.90911 22.9091C2.19789 22.9091 1.99751e-05 20.7112 1.99751e-05 18ZM4.90911 26.1818C2.19789 26.1818 1.99751e-05 28.3797 1.99751e-05 31.0909C1.99751e-05 33.8021 2.19789 36 4.90911 36C7.62033 36 9.8182 33.8021 9.8182 31.0909C9.8182 28.3797 7.62033 26.1818 4.90911 26.1818Z" fill="#0083FC"/>
<rect x="151.5" y="8" width="50" height="21.1429" rx="4" fill="#64FBC1"/>
<path d="M162.538 14.8554C163.887 14.8554 164.906 15.1561 165.596 15.7574C166.292 16.3514 166.641 17.2351 166.641 18.4084V18.5294C166.641 19.7027 166.296 20.5864 165.607 21.1804C164.917 21.7744 163.894 22.0714 162.538 22.0714H158.941V14.8554H162.538ZM162.538 20.5864C163.366 20.5864 163.975 20.4214 164.364 20.0914C164.76 19.7614 164.958 19.2481 164.958 18.5514V18.3974C164.958 17.7081 164.756 17.1947 164.353 16.8574C163.949 16.5127 163.341 16.3404 162.527 16.3404H160.591V20.5864H162.538ZM171.999 22.2034C171.134 22.2034 170.379 22.0531 169.733 21.7524C169.088 21.4517 168.586 21.0227 168.226 20.4654C167.874 19.9081 167.698 19.2591 167.698 18.5184V18.4194C167.698 17.6787 167.874 17.0297 168.226 16.4724C168.586 15.9151 169.088 15.4861 169.733 15.1854C170.386 14.8774 171.141 14.7234 171.999 14.7234C172.865 14.7234 173.62 14.8774 174.265 15.1854C174.911 15.4861 175.409 15.9151 175.761 16.4724C176.113 17.0297 176.289 17.6787 176.289 18.4194V18.5184C176.289 19.2591 176.113 19.9081 175.761 20.4654C175.409 21.0227 174.911 21.4517 174.265 21.7524C173.62 22.0531 172.865 22.2034 171.999 22.2034ZM171.999 20.6744C172.85 20.6744 173.495 20.4911 173.935 20.1244C174.383 19.7577 174.606 19.2297 174.606 18.5404V18.4084C174.606 17.7191 174.379 17.1874 173.924 16.8134C173.477 16.4394 172.835 16.2524 171.999 16.2524C171.156 16.2524 170.507 16.4394 170.052 16.8134C169.605 17.1874 169.381 17.7191 169.381 18.4084V18.5404C169.381 19.2297 169.605 19.7577 170.052 20.1244C170.507 20.4911 171.156 20.6744 171.999 20.6744ZM181.701 22.2034C180.828 22.2034 180.062 22.0531 179.402 21.7524C178.742 21.4517 178.232 21.0264 177.873 20.4764C177.521 19.9191 177.345 19.2701 177.345 18.5294V18.4084C177.345 17.6677 177.521 17.0224 177.873 16.4724C178.232 15.9151 178.742 15.4861 179.402 15.1854C180.062 14.8774 180.828 14.7234 181.701 14.7234C182.508 14.7234 183.23 14.8554 183.868 15.1194C184.513 15.3834 185.016 15.7501 185.375 16.2194C185.742 16.6887 185.925 17.2167 185.925 17.8034V17.8914H184.242V17.8034C184.242 17.5027 184.132 17.2351 183.912 17.0004C183.699 16.7657 183.399 16.5824 183.01 16.4504C182.629 16.3184 182.189 16.2524 181.69 16.2524C180.817 16.2524 180.154 16.4357 179.699 16.8024C179.252 17.1691 179.028 17.6971 179.028 18.3864V18.5514C179.028 19.2481 179.252 19.7761 179.699 20.1354C180.146 20.4947 180.814 20.6744 181.701 20.6744C182.471 20.6744 183.087 20.5351 183.549 20.2564C184.011 19.9704 184.242 19.5964 184.242 19.1344V19.0574H185.925V19.1344C185.925 19.7211 185.742 20.2491 185.375 20.7184C185.016 21.1804 184.513 21.5434 183.868 21.8074C183.23 22.0714 182.508 22.2034 181.701 22.2034ZM190.699 22.2034C189.511 22.2034 188.609 21.9907 187.993 21.5654C187.377 21.1401 187.069 20.5167 187.069 19.6954V19.5854H188.697V19.6954C188.697 20.0474 188.873 20.3151 189.225 20.4984C189.577 20.6817 190.09 20.7734 190.765 20.7734C191.366 20.7734 191.821 20.7111 192.129 20.5864C192.444 20.4544 192.602 20.2637 192.602 20.0144V19.9374C192.602 19.7394 192.514 19.5891 192.338 19.4864C192.162 19.3764 191.85 19.2884 191.403 19.2224L189.566 18.9584C187.982 18.7237 187.19 18.0711 187.19 17.0004V16.8904C187.19 16.2084 187.487 15.6767 188.081 15.2954C188.682 14.9141 189.522 14.7234 190.6 14.7234C191.744 14.7234 192.617 14.9287 193.218 15.3394C193.819 15.7501 194.12 16.3441 194.12 17.1214V17.2204H192.492V17.1214C192.492 16.4761 191.861 16.1534 190.6 16.1534C190.035 16.1534 189.603 16.2121 189.302 16.3294C189.009 16.4467 188.862 16.6191 188.862 16.8464V16.9344C188.862 17.1031 188.943 17.2351 189.104 17.3304C189.273 17.4257 189.559 17.5027 189.962 17.5614L191.81 17.8254C192.653 17.9501 193.273 18.1774 193.669 18.5074C194.072 18.8301 194.274 19.2811 194.274 19.8604V19.9704C194.274 20.6744 193.962 21.2244 193.339 21.6204C192.716 22.0091 191.836 22.2034 190.699 22.2034Z" fill="black"/>
</svg>
