<svg width="89" height="27" viewBox="0 0 89 27" fill="none" xmlns="http://www.w3.org/2000/svg">
<path fill-rule="evenodd" clip-rule="evenodd" d="M0 3.68182C0 1.64841 1.64841 0 3.68182 0L9.81818 0C10.25 0 10.6645 0.0743443 11.0495 0.210932C12.9008 0.867713 14.6038 2.45455 16.5682 2.45455V2.45455C18.5325 2.45455 20.2356 0.867712 22.0869 0.210932C22.4719 0.0743443 22.8863 0 23.3182 0C25.3516 0 27 1.64841 27 3.68182C27 5.71523 25.3516 7.36364 23.3182 7.36364C22.8863 7.36364 22.4719 7.28929 22.0869 7.1527C20.2356 6.49592 18.5325 4.90909 16.5682 4.90909V4.90909C14.6038 4.90909 12.9008 6.49592 11.0495 7.1527C10.6645 7.28929 10.25 7.36364 9.81818 7.36364H3.68182C1.64841 7.36364 0 5.71523 0 3.68182ZM1.49814e-05 13.5C1.49814e-05 11.4666 1.64842 9.81818 3.68183 9.81818C4.2222 9.81818 4.73538 9.93459 5.19766 10.1437C6.81987 10.8775 8.34455 12.2727 10.125 12.2727V12.2727C11.9055 12.2727 13.4301 10.8775 15.0524 10.1437C15.5146 9.93459 16.0278 9.81818 16.5682 9.81818C18.6016 9.81818 20.25 11.4666 20.25 13.5C20.25 15.5334 18.6016 17.1818 16.5682 17.1818C16.0278 17.1818 15.5146 17.0654 15.0524 16.8563C13.4301 16.1225 11.9055 14.7273 10.125 14.7273V14.7273C8.34455 14.7273 6.81987 16.1225 5.19766 16.8563C4.73538 17.0654 4.2222 17.1818 3.68183 17.1818C1.64842 17.1818 1.49814e-05 15.5334 1.49814e-05 13.5ZM3.68183 19.6364C1.64842 19.6364 1.49814e-05 21.2848 1.49814e-05 23.3182C1.49814e-05 25.3516 1.64842 27 3.68183 27C5.71524 27 7.36365 25.3516 7.36365 23.3182C7.36365 21.2848 5.71524 19.6364 3.68183 19.6364Z" fill="#0083FC"/>
<rect x="38.9902" y="2.85718" width="50" height="21.1429" rx="4" fill="#64FBC1"/>
<path d="M50.0278 9.71259C51.3771 9.71259 52.3964 10.0133 53.0858 10.6146C53.7824 11.2086 54.1308 12.0923 54.1308 13.2656V13.3866C54.1308 14.5599 53.7861 15.4436 53.0968 16.0376C52.4074 16.6316 51.3844 16.9286 50.0278 16.9286H46.4308V9.71259H50.0278ZM50.0278 15.4436C50.8564 15.4436 51.4651 15.2786 51.8538 14.9486C52.2498 14.6186 52.4478 14.1053 52.4478 13.4086V13.2546C52.4478 12.5653 52.2461 12.0519 51.8428 11.7146C51.4394 11.3699 50.8308 11.1976 50.0168 11.1976H48.0808V15.4436H50.0278ZM59.4896 17.0606C58.6243 17.0606 57.869 16.9103 57.2236 16.6096C56.5783 16.3089 56.076 15.8799 55.7166 15.3226C55.3646 14.7653 55.1886 14.1163 55.1886 13.3756V13.2766C55.1886 12.5359 55.3646 11.8869 55.7166 11.3296C56.076 10.7723 56.5783 10.3433 57.2236 10.0426C57.8763 9.73459 58.6316 9.58059 59.4896 9.58059C60.355 9.58059 61.1103 9.73459 61.7556 10.0426C62.401 10.3433 62.8996 10.7723 63.2516 11.3296C63.6036 11.8869 63.7796 12.5359 63.7796 13.2766V13.3756C63.7796 14.1163 63.6036 14.7653 63.2516 15.3226C62.8996 15.8799 62.401 16.3089 61.7556 16.6096C61.1103 16.9103 60.355 17.0606 59.4896 17.0606ZM59.4896 15.5316C60.3403 15.5316 60.9856 15.3483 61.4256 14.9816C61.873 14.6149 62.0966 14.0869 62.0966 13.3976V13.2656C62.0966 12.5763 61.8693 12.0446 61.4146 11.6706C60.9673 11.2966 60.3256 11.1096 59.4896 11.1096C58.6463 11.1096 57.9973 11.2966 57.5426 11.6706C57.0953 12.0446 56.8716 12.5763 56.8716 13.2656V13.3976C56.8716 14.0869 57.0953 14.6149 57.5426 14.9816C57.9973 15.3483 58.6463 15.5316 59.4896 15.5316ZM69.1911 17.0606C68.3185 17.0606 67.5521 16.9103 66.8921 16.6096C66.2321 16.3089 65.7225 15.8836 65.3631 15.3336C65.0111 14.7763 64.8351 14.1273 64.8351 13.3866V13.2656C64.8351 12.5249 65.0111 11.8796 65.3631 11.3296C65.7225 10.7723 66.2321 10.3433 66.8921 10.0426C67.5521 9.73459 68.3185 9.58059 69.1911 9.58059C69.9978 9.58059 70.7201 9.71259 71.3581 9.97659C72.0035 10.2406 72.5058 10.6073 72.8651 11.0766C73.2318 11.5459 73.4151 12.0739 73.4151 12.6606V12.7486H71.7321V12.6606C71.7321 12.3599 71.6221 12.0923 71.4021 11.8576C71.1895 11.6229 70.8888 11.4396 70.5001 11.3076C70.1188 11.1756 69.6788 11.1096 69.1801 11.1096C68.3075 11.1096 67.6438 11.2929 67.1891 11.6596C66.7418 12.0263 66.5181 12.5543 66.5181 13.2436V13.4086C66.5181 14.1053 66.7418 14.6333 67.1891 14.9926C67.6365 15.3519 68.3038 15.5316 69.1911 15.5316C69.9611 15.5316 70.5771 15.3923 71.0391 15.1136C71.5011 14.8276 71.7321 14.4536 71.7321 13.9916V13.9146H73.4151V13.9916C73.4151 14.5783 73.2318 15.1063 72.8651 15.5756C72.5058 16.0376 72.0035 16.4006 71.3581 16.6646C70.7201 16.9286 69.9978 17.0606 69.1911 17.0606ZM78.1894 17.0606C77.0014 17.0606 76.0994 16.8479 75.4834 16.4226C74.8674 15.9973 74.5594 15.3739 74.5594 14.5526V14.4426H76.1874V14.5526C76.1874 14.9046 76.3634 15.1723 76.7154 15.3556C77.0674 15.5389 77.5807 15.6306 78.2554 15.6306C78.8567 15.6306 79.3114 15.5683 79.6194 15.4436C79.9347 15.3116 80.0924 15.1209 80.0924 14.8716V14.7946C80.0924 14.5966 80.0044 14.4463 79.8284 14.3436C79.6524 14.2336 79.3407 14.1456 78.8934 14.0796L77.0564 13.8156C75.4724 13.5809 74.6804 12.9283 74.6804 11.8576V11.7476C74.6804 11.0656 74.9774 10.5339 75.5714 10.1526C76.1727 9.77126 77.0124 9.58059 78.0904 9.58059C79.2344 9.58059 80.1071 9.78592 80.7084 10.1966C81.3097 10.6073 81.6104 11.2013 81.6104 11.9786V12.0776H79.9824V11.9786C79.9824 11.3333 79.3517 11.0106 78.0904 11.0106C77.5257 11.0106 77.0931 11.0693 76.7924 11.1866C76.4991 11.3039 76.3524 11.4763 76.3524 11.7036V11.7916C76.3524 11.9603 76.4331 12.0923 76.5944 12.1876C76.7631 12.2829 77.0491 12.3599 77.4524 12.4186L79.3004 12.6826C80.1437 12.8073 80.7634 13.0346 81.1594 13.3646C81.5627 13.6873 81.7644 14.1383 81.7644 14.7176V14.8276C81.7644 15.5316 81.4527 16.0816 80.8294 16.4776C80.2061 16.8663 79.3261 17.0606 78.1894 17.0606Z" fill="black"/>
</svg>
